<svg id="git-fork" xmlns="http://www.w3.org/2000/svg" width="44.06" height="80" viewBox="0 0 44.06 80">
  <path id="git-fork-2" data-name="git-fork" d="M7,11.889a9.02,9.02,0,0,1,18.038,0,8.864,8.864,0,0,1-4.509,7.7V52.065h8.079a8.955,8.955,0,0,0,9.019-8.889V37.595a9.018,9.018,0,1,1,9.019-.107v5.688A17.909,17.909,0,0,1,28.607,60.954H20.528v5.458a8.863,8.863,0,0,1,4.509,7.7A9.02,9.02,0,0,1,7,74.111a8.863,8.863,0,0,1,4.509-7.7V19.589A8.864,8.864,0,0,1,7,11.889Z" transform="translate(-7 -3)" fill="#1c1c1c"/>
</svg>
